Genre:Drama | Fantasy | Romance 
Language:English
IMDb:http://www.imdb.com/title/tt1152398/
Source:PPVRIP-IFLIX Thanks!

Format : AVI
Format/Info : Audio Video Interleave
File size : 652 MiB
Duration : 1h 25mn
Overall bit rate : 1 073 Kbps
Writing library : VirtualDub build 32817/release

Video
ID : 0
Format : MPEG-4 Visual
Format profile : Advanced Simple@L5
Format settings, BVOP : Yes
Format settings, QPel : No
Format settings, GMC : No warppoints
Format settings, Matrix : Default (H.263)
Muxing mode : Packed bitstream
Codec ID : XVID
Codec ID/Hint : XviD
Duration : 1h 25mn
Bit rate : 931 Kbps
Width : 700 pixels
Height : 400 pixels
Display aspect ratio : 16:9
Frame rate : 29.970 fps
Color space : YUV
Chroma subsampling : 4:2:0
Bit depth : 8 bits
Scan type : Progressive
Bits/(Pixel*Frame) : 0.111
Stream size : 566 MiB (87%)
Writing library : XviD 1.2.1 (UTC 2008-12-04)

Audio
ID : 1
Format : MPEG Audio
Format version : Version 1
Format profile : Layer 3
Mode : Joint stereo
Mode extension : MS Stereo
Codec ID : 55
Codec ID/Hint : MP3
Duration : 1h 25mn
Bit rate mode : Constant
Bit rate : 128 Kbps
Channel(s) : 2 channels
Sampling rate : 44.1 KHz
Stream size : 77.8 MiB (12%)
Alignment : Aligned on interleaves
Interleave, duration : 26 ms (0.78 video frame)
Interleave, preload duration : 522 ms
Writing library : LAME3.98.2


Plot:
A modern-day take on the "Beauty and the Beast" tale where a New York teen is transformed into a hideous monster in order to find true love. 

Screens:
 
http://www.pix2links.com/images/64573154593417945335.png 
http://www.pix2links.com/images/71002872721627373834.png 
http://www.pix2links.com/images/54574837295651090274.png 
http://www.pix2links.com/images/83481054248752713013.png 
http://www.pix2links.com/images/15090166190973703224.png 
http://www.pix2links.com/images/21392707709196177362.png

Greets:

INK,CRYS,IMAGINE,LKRG,FXG,3Li,FLAWL3SS,TA,iLLUSiON,ViSiON,DTRG SAFCuk009,LU,TheFalcon007,MYSTiC,PrisM,Noir,WBZ,LAP,Rx,Kingdom,SAFCuk009+Fabreezy,HDLiTE,TWiZTED,ExtraTorrentRG.ELEKTRI4KA,MAGNAT,CM8
And to all the other p2p grps past and present.